<svg width="30" height="30" viewBox="0 0 30 30" fill="none" xmlns="http://www.w3.org/2000/svg">
<g clip-path="url(#clip0_364_419)">
<path d="M13.6935 0L16.6545 0.0075C17.8215 0.1485 18.8445 0.6975 19.6875 1.6245C20.376 2.3805 20.7375 3.2595 20.7585 4.2165H28.971C29.2452 4.21809 29.5076 4.32845 29.7006 4.52335C29.8935 4.71825 30.0012 4.98176 30 5.256C30.0006 5.39172 29.9744 5.52623 29.9231 5.65185C29.8717 5.77746 29.796 5.89173 29.7005 5.98812C29.6049 6.0845 29.4913 6.16113 29.3662 6.21361C29.241 6.26609 29.1067 6.29341 28.971 6.294L26.217 6.2925V23.733C26.217 27.5475 24.7935 30 21.6555 30H8.1285C4.9905 30 3.5895 27.561 3.5895 23.733V6.2925H1.029C0.75542 6.29131 0.493473 6.18169 0.300584 5.98768C0.107694 5.79366 -0.000398561 5.53108 1.10436e-06 5.2575C1.10436e-06 4.683 0.460501 4.2195 1.029 4.2195H9.234C9.255 3.4485 9.5415 2.667 10.065 1.8945C10.845 0.7425 12.063 0.111 13.6935 0ZM24.159 6.2925H5.646V23.733C5.646 26.565 6.426 27.924 8.1285 27.924H21.6555C23.364 27.924 24.1605 26.553 24.1605 23.733L24.159 6.2925V6.2925ZM10.074 9.51C10.641 9.51 11.1015 9.975 11.1015 10.548V22.623C11.1021 22.7587 11.0759 22.8932 11.0246 23.0188C10.9732 23.1445 10.8975 23.2587 10.802 23.3551C10.7064 23.4515 10.5928 23.5281 10.4677 23.5806C10.3425 23.6331 10.2082 23.6604 10.0725 23.661C9.79866 23.6594 9.53664 23.5492 9.34399 23.3546C9.15134 23.16 9.0438 22.8968 9.045 22.623V10.548C9.045 9.975 9.5055 9.51 10.0725 9.51H10.074ZM14.163 9.51C14.733 9.51 15.192 9.975 15.192 10.548V22.623C15.1926 22.7587 15.1664 22.8932 15.1151 23.0188C15.0637 23.1445 14.988 23.2587 14.8925 23.3551C14.7969 23.4515 14.6833 23.5281 14.5582 23.5806C14.433 23.6331 14.2987 23.6604 14.163 23.661C13.8892 23.6594 13.6271 23.5492 13.4345 23.3546C13.2418 23.16 13.1343 22.8968 13.1355 22.623V10.548C13.1355 9.975 13.596 9.51 14.163 9.51ZM18.255 9.51C18.822 9.51 19.2825 9.975 19.2825 10.548V22.623C19.2837 22.8968 19.1762 23.16 18.9835 23.3546C18.7909 23.5492 18.5288 23.6594 18.255 23.661C18.1193 23.6604 17.985 23.6331 17.8598 23.5806C17.7347 23.5281 17.6211 23.4515 17.5255 23.3551C17.43 23.2587 17.3543 23.1445 17.3029 23.0188C17.2516 22.8932 17.2254 22.7587 17.226 22.623V10.548C17.2252 10.274 17.3331 10.0109 17.526 9.81632C17.7189 9.62174 17.981 9.51159 18.255 9.51V9.51ZM13.764 2.073C12.801 2.1405 12.1665 2.469 11.763 3.066C11.466 3.5025 11.3175 3.8805 11.2935 4.218L18.7005 4.2165C18.6795 3.78 18.507 3.396 18.1725 3.0285C17.6535 2.4585 17.0775 2.1495 16.533 2.076L13.764 2.073V2.073Z" fill="black"/>
</g>
<defs>
<clipPath id="clip0_364_419">
<rect width="30" height="30" fill="white"/>
</clipPath>
</defs>
</svg>
