<svg width="30" height="30" viewBox="0 0 30 30" fill="none" xmlns="http://www.w3.org/2000/svg">
<path d="M2.20687 2.09813C2.34691 1.97931 2.51876 1.90424 2.7011 1.88224C2.88343 1.86024 3.06821 1.89228 3.23249 1.97438L27.6075 14.1619C27.763 14.2398 27.8938 14.3595 27.9851 14.5075C28.0765 14.6555 28.1249 14.826 28.1249 15C28.1249 15.174 28.0765 15.3445 27.9851 15.4925C27.8938 15.6405 27.763 15.7602 27.6075 15.8381L3.23249 28.0256C3.06832 28.1079 2.88359 28.1402 2.70123 28.1185C2.51887 28.0967 2.34691 28.0219 2.20672 27.9032C2.06652 27.7846 1.96425 27.6274 1.91261 27.4512C1.86097 27.2749 1.86223 27.0874 1.91624 26.9119L5.58187 15L1.91624 3.08813C1.86254 2.91277 1.86145 2.72552 1.91311 2.54955C1.96477 2.37358 2.0669 2.21663 2.20687 2.09813ZM7.25437 15.9375L4.35374 25.3688L25.0912 15L4.35374 4.63125L7.25437 14.0625H17.8125C18.0611 14.0625 18.2996 14.1613 18.4754 14.3371C18.6512 14.5129 18.75 14.7514 18.75 15C18.75 15.2486 18.6512 15.4871 18.4754 15.6629C18.2996 15.8387 18.0611 15.9375 17.8125 15.9375H7.25624H7.25437Z" fill="black"/>
</svg>
